<svg id="Layer_1" data-name="Layer 1" xmlns="http://www.w3.org/2000/svg" viewBox="0 0 312.55 236.39"><path d="M114.3,231.1c-2.87,0-5.79,0-8.66.08-1.65,0-2.46.83-2.48,2.41,0,1.76.79,2.61,2.61,2.76a18,18,0,0,0,1.82,0h98.9c.65,0,1.26,0,1.86,0,1.86-.15,2.64-1,2.62-2.72s-.78-2.38-2.45-2.46c-1.87-.08-3.78-.07-5.64-.07H179.27V205.77H306.48c5.84,0,6.07-.23,6.07-6V5.84c0-5.73-.11-5.83-5.85-5.83H6C.28,0,0,.27,0,5.81V199.7c0,5.78.29,6.07,6.12,6.07H134.61V231.1H114.3Zm59.27-.23H140.5V207.29h33.07Zm133.51-31H5.63V187.37H307.08Zm0-19.37H5.63V5.67H307.07Z"/></svg>